<svg width="28" height="28" viewBox="0 0 28 28" fill="none" xmlns="http://www.w3.org/2000/svg">
<circle cx="14" cy="14" r="14" fill="black"/>
<path d="M9.55078 13.7617C9.14844 13.8125 8.78516 13.9277 8.46094 14.1074C8.13672 14.2832 7.85938 14.5137 7.62891 14.7988C7.40234 15.0801 7.22656 15.4082 7.10156 15.7832C6.98047 16.1582 6.91992 16.5684 6.91992 17.0137C6.91992 17.6621 7.05469 18.1426 7.32422 18.4551C7.59375 18.7676 8.00586 18.9238 8.56055 18.9238C8.93164 18.9238 9.30273 18.8594 9.67383 18.7305C10.0488 18.6016 10.4102 18.416 10.7578 18.1738C11.1055 17.9277 11.4355 17.6289 11.748 17.2773C12.0645 16.9219 12.3496 16.5176 12.6035 16.0645L12.9082 15.5254L13.0605 15.6367L12.7617 16.1758C12.4805 16.6836 12.1719 17.127 11.8359 17.5059C11.5039 17.8848 11.1523 18.2012 10.7812 18.4551C10.4141 18.709 10.0293 18.8984 9.62695 19.0234C9.22852 19.1523 8.82422 19.2168 8.41406 19.2168C8.03906 19.2168 7.70312 19.1621 7.40625 19.0527C7.10938 18.9434 6.85547 18.7871 6.64453 18.584C6.4375 18.377 6.27734 18.1289 6.16406 17.8398C6.05469 17.5469 6 17.2207 6 16.8613C6 16.4277 6.08008 16.0273 6.24023 15.6602C6.40039 15.293 6.62305 14.9727 6.9082 14.6992C7.19727 14.4219 7.54297 14.1973 7.94531 14.0254C8.34766 13.8496 8.79102 13.7402 9.27539 13.6973C8.98242 13.5332 8.75781 13.3105 8.60156 13.0293C8.44531 12.748 8.36719 12.4297 8.36719 12.0742C8.36719 11.7305 8.43945 11.4062 8.58398 11.1016C8.72852 10.7969 8.92383 10.5312 9.16992 10.3047C9.41992 10.0781 9.71094 9.90039 10.043 9.77148C10.375 9.63867 10.7285 9.57227 11.1035 9.57227C11.3418 9.57227 11.5605 9.60547 11.7598 9.67188C11.9629 9.73828 12.1367 9.83203 12.2812 9.95312C12.4297 10.0742 12.543 10.2188 12.6211 10.3867C12.7031 10.5508 12.7441 10.7324 12.7441 10.9316C12.7441 11.3066 12.627 11.6465 12.3926 11.9512C12.1621 12.252 11.8496 12.5156 11.4551 12.7422L11.373 12.5664C11.5254 12.4805 11.6621 12.377 11.7832 12.2559C11.9043 12.1348 12.0059 12.002 12.0879 11.8574C12.1738 11.709 12.2402 11.5527 12.2871 11.3887C12.334 11.2207 12.3574 11.0508 12.3574 10.8789C12.3574 10.5273 12.2637 10.2598 12.0762 10.0762C11.8926 9.89258 11.627 9.80078 11.2793 9.80078C10.9746 9.80078 10.6855 9.87109 10.4121 10.0117C10.1426 10.1484 9.90625 10.3359 9.70312 10.5742C9.5 10.8086 9.33789 11.084 9.2168 11.4004C9.09961 11.7129 9.04102 12.0449 9.04102 12.3965C9.04102 12.7012 9.08594 12.9648 9.17578 13.1875C9.26562 13.4062 9.39258 13.5625 9.55664 13.6562C9.57617 13.6484 9.60742 13.6406 9.65039 13.6328C9.69336 13.625 9.73438 13.6211 9.77344 13.6211C9.88281 13.6211 9.9375 13.6484 9.9375 13.7031C9.9375 13.7656 9.88086 13.7969 9.76758 13.7969C9.72852 13.7969 9.68945 13.793 9.65039 13.7852C9.61133 13.7773 9.57812 13.7695 9.55078 13.7617ZM15.293 8.96875H16.166L14.1211 14.5762C14.3867 14.1309 14.6387 13.7441 14.877 13.416C15.1191 13.084 15.3594 12.8105 15.5977 12.5957C15.8359 12.377 16.0801 12.2148 16.3301 12.1094C16.5801 12 16.8477 11.9453 17.1328 11.9453C17.3711 11.9453 17.5801 11.9844 17.7598 12.0625C17.9434 12.1406 18.0957 12.252 18.2168 12.3965C18.3418 12.5371 18.4355 12.707 18.498 12.9062C18.5605 13.1055 18.5918 13.3281 18.5918 13.5742C18.5918 13.75 18.5586 13.957 18.4922 14.1953C18.4297 14.4336 18.3496 14.6875 18.252 14.957C18.1543 15.2266 18.0488 15.5039 17.9355 15.7891C17.8223 16.0703 17.7168 16.3438 17.6191 16.6094C17.5215 16.875 17.4395 17.123 17.373 17.3535C17.3105 17.5801 17.2793 17.7734 17.2793 17.9336C17.2793 18.2031 17.3496 18.418 17.4902 18.5781C17.6348 18.7383 17.8574 18.8184 18.1582 18.8184C18.4199 18.8184 18.6719 18.7617 18.9141 18.6484C19.1602 18.5352 19.4023 18.3652 19.6406 18.1387C19.8828 17.9082 20.125 17.6211 20.3672 17.2773C20.6094 16.9297 20.8613 16.5254 21.123 16.0645L21.4277 15.5254L21.5859 15.6367L21.2812 16.1758C20.9961 16.6797 20.7227 17.1172 20.4609 17.4883C20.2031 17.8555 19.9434 18.1602 19.6816 18.4023C19.4238 18.6406 19.1602 18.8184 18.8906 18.9355C18.6211 19.0527 18.334 19.1113 18.0293 19.1113C17.791 19.1113 17.5801 19.0742 17.3965 19C17.2168 18.9297 17.0645 18.8281 16.9395 18.6953C16.8184 18.5625 16.7266 18.4023 16.6641 18.2148C16.6016 18.0273 16.5703 17.8184 16.5703 17.5879C16.5703 17.4199 16.6016 17.2188 16.6641 16.9844C16.7305 16.7461 16.8125 16.4902 16.9102 16.2168C17.0078 15.9434 17.1133 15.6641 17.2266 15.3789C17.3398 15.0898 17.4453 14.8125 17.543 14.5469C17.6406 14.2812 17.7207 14.0352 17.7832 13.8086C17.8496 13.5781 17.8828 13.3867 17.8828 13.2344C17.8828 12.9297 17.8105 12.6875 17.666 12.5078C17.5254 12.3281 17.3047 12.2383 17.0039 12.2383C16.7383 12.2383 16.4824 12.3008 16.2363 12.4258C15.9902 12.5508 15.7363 12.75 15.4746 13.0234C15.2168 13.293 14.9453 13.6426 14.6602 14.0723C14.3789 14.502 14.0723 15.0234 13.7402 15.6367L12.5098 19H11.6426L15.293 8.96875Z" fill="white"/>
</svg>
